<svg version="1.1" id="Layer_1" xmlns="http://www.w3.org/2000/svg" x="0" y="0" viewBox="0 0 56.7 56.7" xml:space="preserve"><style>.st0{fill:#a8a8aa}</style><path class="st0" d="M7.3 30.8V14.4c0-1.6.6-2.7 1.6-3.7.8-.8 1.8-1.2 2.9-1.2h2.3c.2 0 .2 0 .2-.2V5c0-.2 0-.2.2-.2h4.3c.2 0 .2 0 .2.2v4.3c0 .2 0 .2.2.2h18.4c.2 0 .2 0 .2-.2V5c0-.2 0-.2.2-.2h4.3c.2 0 .2 0 .2.2v4.3c0 .2 0 .2.2.2H45c1.4 0 2.5.6 3.3 1.8.8.8 1 1.8 1 2.9v32.9c0 1-.2 1.8-.6 2.5-.8 1.2-1.8 2-3.1 2.2H11.7c-2.2 0-3.5-1-4.3-2.9-.2-.6-.4-1.4-.4-2V36.1c.3-1.5.3-3.5.3-5.3zm21.1 16.5h16.2c.2 0 .2 0 .2-.2V21.5H12.1c-.2 0-.2 0-.2.2v25.6s0 .2.2.2h.2c5.4-.2 10.7-.2 16.1-.2z"/><path class="st0" d="M31.3 29.6h-2.9c-.1 0-.1 0-.1.1v5.8c0 .1 0 .1.1.1h5.8c.1 0 .1 0 .1-.1v-5.8c0-.1 0-.1-.1-.1h-2.9z"/></svg>