<svg width="99" height="86" xmlns="http://www.w3.org/2000/svg"><g fill="#FFF"><path d="M92.787 47.876l-7.993-3.025-4.075-3.998a1.474 1.474 0 00-.943-.418v-3.181a14.754 14.754 0 003.84-7.42c.342.015.688-.012 1.029-.08 1.953-.393 3.37-2.171 3.37-4.228v-1.05c0-1.19-.492-2.282-1.293-3.063 1.297-6.917.229-12.553-3.1-16.326C80.4 1.438 75.211-.306 68.616.044c-6.093.323-10.027 3.074-11.273 4.08a7.836 7.836 0 00-3.02 1.007c-1.63.96-3.573 2.976-3.573 7.13 0 3.624.59 6.65 1.017 8.366-1.432.685-2.39 2.169-2.39 3.865v1.034c0 2.057 1.417 3.835 3.37 4.227.34.069.687.096 1.03.08a14.756 14.756 0 003.838 7.42v3.182a1.47 1.47 0 00-.943.418l-4.075 3.998-7.992 3.025c-.692.262-1.352.6-1.963 1.008a1.423 1.423 0 00-.39 2 1.482 1.482 0 002.04.382c.426-.283.886-.52 1.37-.703l7.417-2.807 5.67 8.347a4.212 4.212 0 003.512 1.842c.73 0 1.438-.189 2.065-.537L63.11 84.496a1.451 1.451 0 001.402 1.502 1.456 1.456 0 001.53-1.375l1.13-25.144h3.048l1.13 25.144A1.456 1.456 0 0072.813 86c.022 0 .044 0 .066-.002a1.451 1.451 0 001.402-1.502l-1.217-27.088a4.251 4.251 0 002.485.516 4.213 4.213 0 003.091-1.82l5.672-8.348 7.417 2.807a6.758 6.758 0 012.64 1.806l-5.075 4.979c-1.833 1.799-2.843 4.19-2.843 6.735V84.56c0 .795.658 1.44 1.468 1.44.81 0 1.468-.645 1.468-1.44V64.083c0-1.775.704-3.444 1.983-4.698l4.454-4.37c.178.643.262 1.32.234 2.012l-1.137 27.474c-.033.795.597 1.465 1.407 1.498l.06.001c.784 0 1.434-.607 1.466-1.382l1.137-27.474c.167-4.076-2.327-7.8-6.205-9.268zM56.65 29.24c-.259-1.383-1.564-2.388-2.972-2.286-.111.008-.226 0-.341-.023-.584-.117-1.024-.721-1.024-1.405v-1.034c0-.668.455-1.27 1.036-1.37.49-.084.959.092 1.256.472.27.345.629.591 1.039.713a2.095 2.095 0 001.774-.28 10.565 10.565 0 002.406-2.309 1.422 1.422 0 00-.301-2.015 1.486 1.486 0 00-2.054.297 7.703 7.703 0 01-1.143 1.212 4.225 4.225 0 00-1.592-.834 32.539 32.539 0 01-1.048-8.117c0-2.206.693-3.756 2.06-4.606 1.066-.664 2.195-.69 2.194-.691.375 0 .74-.145 1.012-.398.036-.033 3.644-3.318 9.823-3.646 5.656-.3 10.023 1.101 12.627 4.052 2.625 2.975 3.5 7.541 2.55 13.257a6.481 6.481 0 00-1.25.085l-1.38-3.25a1.477 1.477 0 00-1.726-.839c-.137.035-13.69 3.407-19.374-3.536a1.487 1.487 0 00-2.063-.221 1.422 1.422 0 00-.225 2.025c5.803 7.09 17.319 5.547 21.152 4.795l1.066 2.513a2.424 2.424 0 002.788 1.402c.475-.11.928-.112 1.098-.08.594.117 1.041.698 1.041 1.353v1.05c0 .684-.44 1.288-1.023 1.405-.116.023-.23.031-.342.023-1.408-.1-2.713.902-2.972 2.286-1.068 5.703-6.134 9.843-12.046 9.843-5.912 0-10.978-4.14-12.046-9.843zm6.511 25.457a1.275 1.275 0 01-1.03.361 1.266 1.266 0 01-.937-.552l-5.714-8.41 2.298-2.254 8.771 7.53-3.388 3.325zm4.141 1.902l.089-1.979 1.305-1.28L70 54.62l.089 1.98h-2.788zm1.394-7.21l-8.144-6.993V39.64a15.356 15.356 0 008.144 2.324c2.975 0 5.777-.846 8.145-2.324v2.756l-8.145 6.993zm7.503 5.117c-.292.43-.713.53-.938.552a1.275 1.275 0 01-1.03-.361l-3.388-3.324 8.772-7.531 2.297 2.255-5.713 8.409z"/><path d="M46.217 55.424l-7.116-3.07-3.89-3.844a1.457 1.457 0 00-.937-.417v-2.266c3.325-2.159 5.758-5.592 6.54-9.684a4.23 4.23 0 001.15-.108c1.865-.436 3.218-2.202 3.218-4.199v-1.05a4.28 4.28 0 00-1.868-3.541c.334-1.307.505-2.644.505-3.99 0-5.967-3.264-11.222-8.184-14.24C35.583 4.037 31.282 0 26 0s-9.583 4.036-9.635 9.016c-4.92 3.017-8.183 8.273-8.183 14.239 0 1.342.169 2.675.5 3.978-1.134.766-1.864 2.085-1.864 3.569v1.034c0 1.997 1.353 3.763 3.218 4.2.381.088.767.124 1.15.107.782 4.092 3.215 7.525 6.54 9.684v2.266a1.46 1.46 0 00-.937.417l-3.89 3.844-7.116 3.07c-3.62 1.562-5.94 5.231-5.774 9.132L.87 84.62A1.45 1.45 0 002.324 86c.021 0 .042 0 .063-.002a1.447 1.447 0 001.394-1.5l-.86-20.064a6.57 6.57 0 01.924-3.627l3.825 4.536a7.949 7.949 0 011.874 5.116v14.1A1.45 1.45 0 0011.001 86a1.45 1.45 0 001.458-1.44V70.459c0-2.539-.906-5.01-2.55-6.96l-4.067-4.822a6.63 6.63 0 011.106-.614l6.202-2.675 4.383 7.03a2.819 2.819 0 002.403 1.325c.666 0 1.315-.233 1.83-.667l2.777-2.342V84.56c0 .796.652 1.441 1.457 1.441a1.45 1.45 0 001.457-1.44V60.734l2.777 2.341a2.837 2.837 0 002.27.634 2.819 2.819 0 001.963-1.292l4.383-7.03 6.202 2.676c.392.169.76.377 1.106.613l-4.067 4.822a10.814 10.814 0 00-2.55 6.96v14.1a1.45 1.45 0 001.457 1.441 1.45 1.45 0 001.458-1.44v-14.1a7.95 7.95 0 011.874-5.116l3.825-4.536a6.57 6.57 0 01.924 3.627l-.86 20.065A1.447 1.447 0 0049.676 86a1.45 1.45 0 001.455-1.38l.86-20.064c.168-3.9-2.153-7.57-5.774-9.132zM26 2.88c3.1 0 5.716 1.955 6.49 4.603A18.545 18.545 0 0026 6.32c-2.29 0-4.478.413-6.49 1.163C20.283 4.835 22.9 2.88 26 2.88zM14.039 35.55c-.257-1.383-1.555-2.388-2.952-2.286a1.274 1.274 0 01-.38-.032c-.556-.13-.975-.73-.975-1.396v-1.034c0-.668.452-1.27 1.028-1.37.487-.085.953.092 1.247.472.268.345.625.591 1.033.713a2.067 2.067 0 001.76-.28 10.515 10.515 0 002.36-2.267 1.429 1.429 0 00-.291-2.017 1.469 1.469 0 00-2.04.287c-.331.435-.703.83-1.112 1.182a4.2 4.2 0 00-2.2-.957 13.263 13.263 0 01-.422-3.31c0-7.75 6.686-14.054 14.905-14.054 8.218 0 14.904 6.304 14.904 14.054 0 1.114-.142 2.22-.42 3.304-.384.03-.774.092-1.134.184l-1.096-.89a2.82 2.82 0 00-1.945-.63c-2.142.125-13.113.411-18.741-6.245a1.47 1.47 0 00-2.053-.182c-.618.51-.7 1.418-.184 2.029 2.776 3.283 6.848 5.503 12.102 6.598 4.022.838 7.598.757 8.999.678l1.71 1.389c.47.382 1.13.436 1.656.133.247-.133 1.075-.26 1.436-.189.59.116 1.034.697 1.034 1.352v1.05c0 .666-.42 1.266-.975 1.396a1.26 1.26 0 01-.38.032c-1.396-.1-2.695.903-2.952 2.286-1.06 5.704-6.09 9.844-11.961 9.844-5.87 0-10.901-4.14-11.961-9.844zm5.918 25.265l-4.384-7.031 2.246-2.219 6.035 5.964-3.897 3.286zM26 55.575l-5.36-5.296V47.3a15.212 15.212 0 0010.72.001v2.98L26 55.575zm6.043 5.24l-3.897-3.286 6.035-5.964 2.245 2.219-4.383 7.031z"/></g></svg>