<svg width="14" height="14" xmlns="http://www.w3.org/2000/svg"><g fill="none"><path d="M12.099 3.12V1.763c0-.23-.116-.346-.347-.346H10.43c-.231 0-.346.115-.346.346V3.12c0 .21.115.315.346.315h1.323c.231 0 .347-.105.347-.315zm-10.43 9.074h10.083c.231 0 .347-.116.347-.347V6.144h-1.418c.042.252.063.473.063.662 0 1.113-.394 2.063-1.181 2.851-.788.788-1.739 1.182-2.852 1.182A3.883 3.883 0 013.86 9.657c-.788-.788-1.182-1.738-1.182-2.851 0-.231.021-.452.063-.662H1.355v5.703c0 .231.105.347.315.347zm5.058-8.066c-.746 0-1.381.262-1.906.787a2.578 2.578 0 00-.788 1.89c0 .736.263 1.366.788 1.891.525.525 1.16.788 1.906.788s1.381-.263 1.906-.788a2.578 2.578 0 00.788-1.89c0-.735-.263-1.366-.788-1.89a2.597 2.597 0 00-1.906-.788zM12.099.095c.378 0 .698.13.961.393s.394.573.394.93v10.776c0 .357-.131.666-.394.929a1.308 1.308 0 01-.961.394H1.355c-.378 0-.699-.131-.961-.394a1.271 1.271 0 01-.394-.93V1.419C0 1.06.131.75.394.488c.262-.262.583-.393.96-.393H12.1z" fill="#FFF"/><path d="M0 0h13.611v13.611H0z"/></g></svg>