<svg width="14" height="14" xmlns="http://www.w3.org/2000/svg"><g fill="none"><path d="M10.051 6.979c-.168-.22-.483-.33-.945-.33-.567 0-.966.167-1.198.503-.23.336-.346.809-.346 1.418v4.6a.34.34 0 01-.095.252.34.34 0 01-.252.095H4.821a.357.357 0 01-.237-.095.315.315 0 01-.11-.252V4.663c0-.084.037-.163.11-.236a.331.331 0 01.237-.11h2.331c.084 0 .153.02.205.063.053.042.09.105.11.189v.157a.54.54 0 01.032.22c.588-.566 1.386-.85 2.394-.85 1.114 0 1.985.284 2.616.85.63.568.945 1.398.945 2.49v5.734a.315.315 0 01-.11.252.357.357 0 01-.237.095H10.65a.357.357 0 01-.237-.095.315.315 0 01-.11-.252V8.003c0-.462-.084-.803-.252-1.024zM2.773 2.883a1.54 1.54 0 01-1.15.488 1.54 1.54 0 01-1.15-.488A1.618 1.618 0 010 1.717C0 1.266.158.882.473.567a1.565 1.565 0 011.15-.472c.451 0 .835.157 1.15.472.315.315.472.699.472 1.15 0 .452-.157.84-.472 1.166zm.41 1.78v8.507a.315.315 0 01-.111.252.357.357 0 01-.236.095H.44a.34.34 0 01-.252-.095.34.34 0 01-.094-.252V4.663c0-.084.031-.163.094-.236a.315.315 0 01.252-.11h2.395a.33.33 0 01.236.11c.074.073.11.152.11.236z" fill="#FFF"/><path d="M0 0h13.611v13.611H0z"/></g></svg>