<svg width="95" height="96" xmlns="http://www.w3.org/2000/svg" xmlns:xlink="http://www.w3.org/1999/xlink"><defs><path id="a" d="M0 .674h94.848v8.062H0z"/><path id="c" d="M0 .037h94.848v8.062H0z"/><path id="e" d="M0 95.546h94.848V0H0z"/></defs><g fill="none" fill-rule="evenodd"><g transform="translate(0 74.746)"><mask id="b" fill="#fff"><use xlink:href="#a"/></mask><path d="M86.808 5.705c-2.77 0-5.042-2.257-5.07-5.031l-1.49.015-1.492-.015c-.029 2.774-2.304 5.03-5.076 5.03-2.769 0-5.044-2.256-5.07-5.03l-1.484.015h-.013L65.628.674c-.026 2.774-2.303 5.03-5.075 5.03-2.766 0-5.044-2.256-5.07-5.03l-1.485.015h-.013L52.501.674c-.026 2.774-2.304 5.03-5.073 5.03-2.769 0-5.046-2.256-5.075-5.03l-1.482.015h-1.49c0 2.8-2.28 5.08-5.078 5.08a5.086 5.086 0 01-5.08-5.08h-2.972c0 2.8-2.277 5.08-5.078 5.08-2.8 0-5.077-2.28-5.077-5.08h-2.97c0 2.8-2.28 5.08-5.083 5.08A5.085 5.085 0 012.968.69H0c0 4.436 3.611 8.047 8.044 8.047a8.037 8.037 0 006.565-3.406c1.462 2.057 3.856 3.406 6.565 3.406 2.71 0 5.107-1.35 6.563-3.406 1.461 2.057 3.856 3.406 6.567 3.406A8.037 8.037 0 0040.9 5.283c1.46 2.044 3.842 3.39 6.528 3.39 2.707 0 5.101-1.362 6.565-3.429 1.459 2.067 3.859 3.43 6.56 3.43 2.704 0 5.104-1.363 6.565-3.43 1.461 2.067 3.858 3.43 6.562 3.43 2.707 0 5.104-1.363 6.568-3.43 1.459 2.067 3.858 3.43 6.56 3.43 4.391 0 8-3.578 8.042-7.97l-2.97-.03c-.028 2.774-2.303 5.03-5.072 5.03" fill="#FFF" mask="url(#b)"/></g><g transform="translate(0 87.446)"><mask id="d" fill="#fff"><use xlink:href="#c"/></mask><path d="M86.808 5.068c-2.77 0-5.042-2.257-5.07-5.031l-1.49.013-1.492-.013c-.029 2.774-2.304 5.03-5.076 5.03-2.769 0-5.044-2.256-5.07-5.03L67.126.05h-.013L65.628.037c-.026 2.774-2.303 5.03-5.075 5.03-2.766 0-5.044-2.256-5.07-5.03L53.998.05h-.013L52.501.037c-.026 2.774-2.304 5.03-5.073 5.03-2.769 0-5.046-2.256-5.075-5.03L40.871.05h-1.49c0 2.8-2.28 5.08-5.078 5.08a5.086 5.086 0 01-5.08-5.08h-2.972c0 2.8-2.277 5.08-5.078 5.08-2.8 0-5.077-2.28-5.077-5.08h-2.97c0 2.8-2.28 5.08-5.083 5.08A5.085 5.085 0 012.968.05H0C0 4.488 3.611 8.1 8.044 8.1c2.712 0 5.107-1.353 6.565-3.41 1.462 2.057 3.856 3.41 6.565 3.41a8.035 8.035 0 006.563-3.41c1.461 2.057 3.856 3.41 6.567 3.41A8.037 8.037 0 0040.9 4.646c1.46 2.043 3.842 3.387 6.528 3.387 2.707 0 5.101-1.36 6.565-3.429 1.459 2.07 3.859 3.43 6.56 3.43 2.704 0 5.104-1.36 6.565-3.43 1.461 2.07 3.858 3.43 6.562 3.43 2.707 0 5.104-1.36 6.568-3.43 1.459 2.07 3.858 3.43 6.56 3.43 4.391 0 8-3.576 8.042-7.97L91.88.037c-.028 2.774-2.303 5.03-5.072 5.03" fill="#FFF" mask="url(#d)"/></g><path fill="#FFF" d="M83.048 47.684v-2.97H11.802v2.97h8.903v2.969H14.61v20.782h2.97V53.622h3.125v5.939h2.972v-5.939h2.787v17.813h2.972V50.653h-5.76v-2.97h22.267v2.97h-5.915v20.782h2.967V53.622h2.948v5.939h2.967v-5.939h2.974v17.813h2.967V50.653H48.91v-2.97h22.386v2.97h-5.853v20.782h2.967V53.622h2.886v5.939h2.969v-5.939h3.029v17.813h2.972V50.653h-6.001v-2.97z"/><mask id="f" fill="#fff"><use xlink:href="#e"/></mask><path fill="#FFF" mask="url(#f)" d="M8.832 41.746h77.184v-2.969H8.832zm32.656-5.813V23.934H14.771v11.752h2.966v-8.783h20.78v9.03zm3.092-.123h20.657v-2.969H44.58z"/><path fill="#FFF" mask="url(#f)" d="M32.58 32.901h2.972v-2.966h-2.971zm-5.935 0h2.969v-2.966h-2.97zm-5.941 0h2.972v-2.966h-2.972zM14.77 18.307h26.718v-3.091H14.771v3.091zm-2.969 2.964h32.656v-9.027H11.801v9.027zM26.645 9.277V0H14.583v9.277h2.97V2.969h6.123v6.308zm14.843 0V0H29.427v9.277h2.969V2.969h6.12v6.308zm8.968 8.596h6.12v-3.031h-6.12v3.031zm9.092 6.245V11.875H47.486v12.243h2.97v-3.276h6.123v3.276h2.969zm-15.091 5.754h20.657v-2.969H44.457zm40.2-23.749H71.488l-3.268 23.67-.016 6.139h2.967V30.1l2.907-21.008h.426l2.608 20.75v6.09h2.97v-6.185l-2.59-20.655h7.165z"/></g></svg>