<svg width="120" height="207" xmlns="http://www.w3.org/2000/svg"><path d="M118.286 129.178c-.581-.43-14.378-10.494-28.977-7.612-3.727.736-7.09 2.235-10.04 4.068a106.976 106.976 0 003.699-27.922c0-2.09-.072-4.173-.193-6.252l.145.002c3.706 0 8.922-.41 14.155-2.181 2.194-.743 3.377-3.145 2.644-5.366-.733-2.22-3.104-3.418-5.298-2.677-4.134 1.399-8.352 1.73-11.357 1.74.976-4.77 3.365-12.45 9.04-17.145 5.677-4.696 13.587-5.534 18.395-5.55-.685 3.348-2.067 8.13-4.8 12.314-1.275 1.953-.745 4.584 1.184 5.876a4.156 4.156 0 005.802-1.198c6.047-9.26 6.78-20.25 6.808-20.714.134-2.21-1.433-4.153-3.599-4.46-.712-.102-17.567-2.365-29.087 7.165-3.402 2.814-5.896 6.295-7.73 9.822a106.093 106.093 0 00-9.782-23.731c1.088-4.831 3.12-17.716-2.989-28.277C58.787 4.083 42.209.256 41.507.1c-2.136-.476-4.273.792-4.907 2.91-.208.697-5.02 17.211 2.499 30.208 6.165 10.66 18.418 15.148 23.016 16.505 8.161 14.578 12.479 31.128 12.479 47.989 0 44.147-29.394 82.881-71.482 94.194-2.147.577-3.5 2.837-3.01 5.031.516 2.314 2.893 3.773 5.158 3.165a103.413 103.413 0 0029-12.829c2.908 5.358 8.753 13.851 18.052 17.618 3.814 1.545 7.748 2.108 11.46 2.108 9.735 0 17.941-3.875 18.411-4.1 1.975-.951 2.895-3.28 2.113-5.348-.258-.68-6.46-16.71-20.272-22.306-4.077-1.652-8.292-2.177-12.227-2.095a106.328 106.328 0 0018.689-25.275c4.3 2.384 11.502 5.549 19.447 5.549a27.89 27.89 0 005.41-.519c14.6-2.882 23.653-17.456 24.031-18.075 1.15-1.884.677-4.346-1.087-5.653zm-58.032 54.347c6.831 2.77 11.4 9.406 13.746 13.673-4.59 1.455-12.384 3.063-19.254.277-6.831-2.77-11.4-9.406-13.746-13.673 4.59-1.455 12.383-3.063 19.254-.277zM46.078 28.29c-3.73-6.415-3.324-14.47-2.592-19.29 4.534 1.715 11.707 5.298 15.436 11.71 3.73 6.415 3.324 14.47 2.592 19.29-4.535-1.715-11.707-5.298-15.436-11.71zm47.845 115.358c-7.243 1.382-14.655-1.589-18.923-3.815 3.087-3.629 8.791-9.088 16.077-10.48 7.244-1.38 14.656 1.59 18.923 3.816-3.087 3.629-8.791 9.088-16.077 10.479z" fill="#FFF"/></svg>