<svg width="120" height="205" xmlns="http://www.w3.org/2000/svg"><path d="M116.89 190.052C74.801 178.85 45.406 140.49 45.406 96.77c0-16.699 4.318-33.089 12.479-47.525 4.599-1.345 16.851-5.79 23.017-16.346C88.42 20.027 83.61 3.672 83.4 2.982A4.186 4.186 0 0078.494.1c-.702.155-17.28 3.944-24.8 16.816-6.109 10.46-4.076 23.219-2.988 28.004a104.502 104.502 0 00-9.782 23.501c-1.834-3.493-4.329-6.94-7.73-9.727-11.52-9.437-28.376-7.197-29.088-7.095a4.196 4.196 0 00-3.598 4.417c.045.719 1.217 17.73 12.738 27.167 7.698 6.307 17.78 7.398 23.833 7.398h.146a105.76 105.76 0 00-.192 6.189c0 9.514 1.284 18.794 3.7 27.651-2.952-1.815-6.314-3.3-10.041-4.028-14.601-2.855-28.396 7.112-28.977 7.538a4.206 4.206 0 00-1.088 5.598c.14.228 3.506 5.63 9.304 10.487a4.178 4.178 0 005.898-.53 4.206 4.206 0 00-.53-5.915c-2.056-1.723-3.751-3.546-5.01-5.056 4.246-2.267 11.607-5.286 18.8-3.88 7.195 1.407 12.886 6.977 15.97 10.675-3.851 2.056-10.27 4.731-16.8 4.158-2.27-.195-4.337 1.54-4.536 3.817-.199 2.28 1.534 4.35 3.807 4.55.853.074 1.7.109 2.539.109 7.939 0 15.143-3.136 19.445-5.497a105.366 105.366 0 0018.69 25.032c-3.935-.08-8.15.439-12.228 2.075-13.811 5.541-20.014 21.417-20.271 22.09a4.203 4.203 0 002.112 5.296c.47.224 8.675 4.061 18.41 4.061 3.713 0 7.65-.558 11.462-2.088 9.298-3.73 15.144-12.14 18.052-17.447a103.928 103.928 0 0029 12.705c2.265.602 4.642-.843 5.159-3.134.49-2.174-.864-4.413-3.01-4.984zM18.228 76.378C12.43 71.618 9.993 63.828 9 59c4.892.006 12.942.847 18.774 5.635C33.567 69.39 36.005 77.17 37 82c-4.909-.017-12.98-.867-18.771-5.622zm41.849-54.667c3.73-6.414 10.904-9.997 15.436-11.711.732 4.823 1.138 12.877-2.592 19.29-3.73 6.413-10.904 9.996-15.436 11.71-.732-4.823-1.138-12.877 2.592-19.29zm4.175 173.776c-6.829 2.774-14.652 1.158-19.253-.294 2.332-4.268 6.879-10.89 13.747-13.68 6.83-2.773 14.652-1.159 19.253.294-2.331 4.268-6.878 10.89-13.747 13.68z" fill="#FFF"/></svg>