<svg width="74" height="95" xmlns="http://www.w3.org/2000/svg" xmlns:xlink="http://www.w3.org/1999/xlink"><defs><path id="a" d="M0 .157h73.41v58.375H0z"/><path id="c" d="M.18.978h34.048V19.43H.18z"/><path id="e" d="M.034.165H70.78V11.7H.034z"/></defs><g fill="none" fill-rule="evenodd"><g transform="translate(0 24.023)"><mask id="b" fill="#fff"><use xlink:href="#a"/></mask><path d="M36.373 11.272a1.802 1.802 0 00-.824.08l-20.082 7.114V3.81h42.478v14.656L37.86 11.352a1.736 1.736 0 00-.821-.08l-.078.007-.356-.018-.232.01zm2.015 45.505c.047-.047.094-.1.143-.143V15.465l30.8 10.907-8.297 27.438c1.282-.135 2.486.02 3.692.41l8.606-28.456a1.827 1.827 0 00-1.141-2.252l-10.595-3.751V1.984A1.826 1.826 0 0059.77.157H13.639a1.828 1.828 0 00-1.825 1.827v17.777L1.219 23.512a1.827 1.827 0 00-1.142 2.252l8.565 28.322c1.196-.398 2.412-.564 3.681-.447L4.081 26.372l30.797-10.907V56.52c.037.037.068.065.096.097l1.781 1.916 1.633-1.755z" fill="#FFF" mask="url(#b)"/></g><g transform="translate(19.5 -.677)"><mask id="d" fill="#fff"><use xlink:href="#c"/></mask><path d="M34.228 19.43v-8.124a1.826 1.826 0 00-1.825-1.825H19.03V2.804A1.828 1.828 0 0017.206.976a1.829 1.829 0 00-1.828 1.828V9.48H2.006A1.83 1.83 0 00.18 11.306v8.125h3.655v-6.295h26.741v6.295h3.65z" fill="#FFF" mask="url(#d)"/></g><path d="M21.18 51.89c.343.913 1.42 1.41 2.353 1.067l5.254-1.987a1.826 1.826 0 00.11-3.37 1.815 1.815 0 00-.75-.16c-.218 0-.439.036-.647.117l-5.26 1.98a1.83 1.83 0 00-1.06 2.354m22.379-3.273a1.828 1.828 0 001.063 2.353l5.257 1.981c.939.354 2.01-.15 2.353-1.058a1.83 1.83 0 00-1.063-2.356l-5.257-1.984a1.825 1.825 0 00-2.353 1.064" fill="#FFF"/><g transform="translate(1.3 82.523)"><mask id="f" fill="#fff"><use xlink:href="#e"/></mask><path d="M70.777 9.956a1.817 1.817 0 00-.486-1.31l-6.479-6.968c-1.674-1.8-4.77-1.8-6.44 0l-4.724 5.078h-.739L47.19 1.68c-1.68-1.807-4.766-1.805-6.443-.003l-4.919 5.291h-.743l-5.07-5.452c-1.672-1.802-4.766-1.802-6.44 0l-4.67 5.026h-.739l-4.672-5.026c-1.677-1.802-4.768-1.802-6.445 0L.523 8.539a1.828 1.828 0 00.093 2.582c.739.681 1.896.64 2.58-.096L9.9 3.815h.741l4.672 5.02c1.677 1.81 4.769 1.808 6.443 0l4.667-5.02h.744l5.067 5.45c1.672 1.802 4.766 1.802 6.44 0l4.922-5.286h.26c.237-.005.328-.003.442.042l.213.145 4.545 4.888c1.674 1.8 4.766 1.8 6.443 0l4.719-5.075.746.003 6.648 7.152c.666.715 1.87.76 2.582.094.356-.333.564-.785.582-1.272" fill="#FFF" mask="url(#f)"/></g></g></svg>