<svg width="14" height="12" xmlns="http://www.w3.org/2000/svg"><g fill="none"><path d="M12.068 3.308v.347c0 .945-.174 1.875-.52 2.788a8.53 8.53 0 01-1.481 2.505c-.64.756-1.47 1.37-2.49 1.843-1.018.473-2.137.71-3.355.71-1.533 0-2.94-.41-4.222-1.23.21.022.43.032.662.032a5.477 5.477 0 003.434-1.166 2.786 2.786 0 01-1.623-.567 2.637 2.637 0 01-.96-1.355 2.104 2.104 0 001.229-.063 2.684 2.684 0 01-1.576-.945 2.63 2.63 0 01-.63-1.733v-.031c.399.21.819.325 1.26.346C.976 4.222.567 3.455.567 2.49c0-.504.126-.966.378-1.386A7.923 7.923 0 003.45 3.119a7.763 7.763 0 003.167.851 3.206 3.206 0 01-.063-.63c0-.756.267-1.402.803-1.938A2.64 2.64 0 019.295.6c.798 0 1.47.283 2.016.85a5.77 5.77 0 001.765-.661A2.649 2.649 0 0111.847 2.3a5.829 5.829 0 001.607-.41 5.92 5.92 0 01-1.386 1.418z" fill="#FFF"/><path d="M0 0h13.611v12.099H0z"/></g></svg>