<svg width="14" height="10" xmlns="http://www.w3.org/2000/svg"><g fill="none"><path d="M13.296 2.371c.105.736.158 1.46.158 2.174v1.009l-.158 2.174c-.084.609-.262 1.05-.535 1.323-.294.294-.735.483-1.324.567-.567.042-1.244.074-2.032.095-.788.02-1.434.031-1.938.031h-.756c-2.331-.02-3.854-.063-4.568-.126l-.253-.031-.41-.063-.393-.158-.41-.315-.315-.52-.173-.583-.063-.22A19.137 19.137 0 010 5.554V4.545l.126-2.174c.084-.609.263-1.05.536-1.323.294-.315.745-.504 1.355-.567A43.82 43.82 0 014.033.386 73.682 73.682 0 015.955.355h.756c1.89 0 3.466.042 4.726.126.589.063 1.03.252 1.324.567a1.3 1.3 0 01.22.3 2.53 2.53 0 01.252.677c.021.105.042.189.063.252v.094zM8.54 5.144l.44-.22-3.623-1.891v3.781l3.183-1.67z" fill="#FFF"/><path d="M0-1h13.611v12.099H0z"/></g></svg>